<?xml version="1.0" encoding="utf-8"?>
<!-- Generator: Adobe Illustrator 15.0.0, SVG Export Plug-In . SVG Version: 6.00 Build 0)  -->
<!DOCTYPE svg PUBLIC "-//W3C//DTD SVG 1.1//EN" "http://www.w3.org/Graphics/SVG/1.1/DTD/svg11.dtd">
<svg version="1.1" id="Camada_1" xmlns="http://www.w3.org/2000/svg" xmlns:xlink="http://www.w3.org/1999/xlink" x="0px" y="0px"
	 width="16px" height="16px" viewBox="0 0 16 16" enable-background="new 0 0 16 16" xml:space="preserve">
<path fill="#010101" d="M2.231,7.326c-0.025,0,0.279,0.644,0.287,0.644c0.664,1.185,1.942,1.921,4.101,2.124
	c-0.308,0.23-0.679,0.666-0.729,1.17c-0.387,0.246-1.166,0.326-1.771,0.139C3.271,11.14,2.945,9.489,1.675,9.725
	C1.4,9.775,1.455,9.953,1.692,10.105c0.388,0.246,0.752,0.554,1.033,1.209c0.215,0.504,0.67,1.404,2.104,1.404
	c0.569,0,0.969-0.068,0.969-0.068s0.011,1.285,0.011,1.785c0,0.576-0.791,0.739-0.791,1.016c0,0.109,0.262,0.121,0.472,0.121
	c0.416,0,1.282-0.342,1.282-0.941c0-0.475,0.008-2.074,0.008-2.355c0-0.611,0.334-0.805,0.334-0.805s0.041,3.266-0.08,3.704
	c-0.143,0.515-0.398,0.441-0.398,0.671c0,0.342,1.041,0.085,1.387-0.666c0.268-0.582,0.15-3.788,0.15-3.788l0.285-0.007
	c0,0,0.016,1.468,0.006,2.139c-0.01,0.694-0.059,1.572,0.361,1.986c0.275,0.273,1.17,0.75,1.17,0.314c0-0.254-0.49-0.463-0.49-1.148
	v-3.161c0.391,0,0.332,1.039,0.332,1.039l0.029,1.931c0,0-0.087,0.703,0.773,0.998c0.305,0.104,0.953,0.133,0.984-0.043
	s-0.782-0.437-0.789-0.98c-0.006-0.332,0.015-0.527,0.015-1.971s-0.198-1.978-0.886-2.402c2.121-0.215,3.436-0.73,4.074-2.111
	c0.051,0.002,0.262-0.646,0.234-0.646c0.143-0.521,0.221-1.138,0.236-1.868c-0.004-1.982-0.969-2.683-1.154-3.012
	c0.273-1.5-0.045-2.182-0.193-2.416c-0.547-0.191-1.902,0.492-2.643,0.973c-1.207-0.348-3.758-0.313-4.715,0.09
	C4.038-0.146,3.104,0.043,3.104,0.043s-0.604,1.063-0.16,2.619C2.364,3.39,1.931,3.904,1.931,5.269
	C1.932,6.038,2.024,6.727,2.231,7.326z"/>
</svg>
