<?xml version="1.0" encoding="utf-8"?>
<!-- Generator: Adobe Illustrator 14.0.0, SVG Export Plug-In . SVG Version: 6.00 Build 43363)  -->
<!DOCTYPE svg PUBLIC "-//W3C//DTD SVG 1.1//EN" "http://www.w3.org/Graphics/SVG/1.1/DTD/svg11.dtd">
<svg version="1.1" xmlns="http://www.w3.org/2000/svg" xmlns:xlink="http://www.w3.org/1999/xlink" x="0px" y="0px" width="24px"
	 height="24px" viewBox="0 0 24 24" enable-background="new 0 0 24 24" xml:space="preserve">
<g id="Ruby">
	<path fill="#FFFFFF" d="M23.512,7.685l-3.188-3.967C20.324,3.718,17.938,0,12,0C5.688,0,3.677,3.718,3.677,3.718L0.488,7.685
		L0,9.503l0.492,1.834L12,24l11.508-12.663L24,9.503L23.512,7.685z M12,1.25c4.479,0,7.229,2.087,7.229,3.373
		c0,1.287-2.75,3.083-7.229,3.083c-4.478,0-7.228-1.795-7.228-3.083C4.772,3.337,7.522,1.25,12,1.25z M11.112,15.667H6.909
		l1.485-5.914L11.112,15.667z M8.978,8.952C9.955,9.146,10.985,9.246,12,9.246c1.016,0,2.046-0.1,3.023-0.294L12,15.53L8.978,8.952
		z M12.888,15.667l2.718-5.914l1.485,5.914H12.888z M1.597,10.67L1.284,9.503l0.339-1.264l1.636-2.034l-1.239,4.932L1.597,10.67z
		 M4.085,6.354c0.649,0.942,1.817,1.664,3.227,2.151l-4.464,2.776L4.085,6.354z M3.066,12.295l4.533-2.819l-1.54,6.125
		L3.066,12.295z M7.491,17.188h3.683v4.071L7.491,17.188z M12.827,17.188h3.821l-3.821,4.224V17.188z M17.971,15.725l-1.57-6.25
		l4.622,2.875L17.971,15.725z M16.688,8.505c1.409-0.487,2.578-1.208,3.226-2.151l1.238,4.927L16.688,8.505z M22.424,10.8
		l-0.413,0.457l-1.23-4.901l1.618,2.015l0.339,1.263L22.424,10.8z"/>
</g>
</svg>
