<?xml version="1.0" encoding="utf-8"?>
<!-- Generator: Adobe Illustrator 15.0.0, SVG Export Plug-In . SVG Version: 6.00 Build 0)  -->
<!DOCTYPE svg PUBLIC "-//W3C//DTD SVG 1.1//EN" "http://www.w3.org/Graphics/SVG/1.1/DTD/svg11.dtd">
<svg version="1.1" id="Camada_1" xmlns="http://www.w3.org/2000/svg" xmlns:xlink="http://www.w3.org/1999/xlink" x="0px" y="0px"
	 width="16px" height="16px" viewBox="0 0 16 16" enable-background="new 0 0 16 16" xml:space="preserve">
<g>
	<g>
		<path d="M8,1.759l7,2v8.618l-7,1.869l-7-1.869V3.759L8,1.759 M8,0.719L0,3.005v10.14l8,2.137l8-2.137V3.005L8,0.719L8,0.719z"/>
	</g>
	<g>
		<path d="M9,2.022l6,1.737v8.618l-6,1.603V2 M8,0.719v14.562l8-2.137V3.005L8,0.719L8,0.719z"/>
	</g>
	<g>
		<g>
			<path d="M8,1.759l6.051,1.729L8,5.102L1.949,3.488L8,1.759 M8,0.719L0,3.005v0.998l8,2.134l8-2.134V3.005L8,0.719L8,0.719z"/>
		</g>
	</g>
</g>
</svg>
