<?xml version="1.0" encoding="utf-8"?>
<!-- Generator: Adobe Illustrator 15.0.0, SVG Export Plug-In . SVG Version: 6.00 Build 0)  -->
<!DOCTYPE svg PUBLIC "-//W3C//DTD SVG 1.1//EN" "http://www.w3.org/Graphics/SVG/1.1/DTD/svg11.dtd">
<svg version="1.1" id="Camada_1" xmlns="http://www.w3.org/2000/svg" xmlns:xlink="http://www.w3.org/1999/xlink" x="0px" y="0px"
	 width="16px" height="16px" viewBox="0 0 16 16" enable-background="new 0 0 16 16" xml:space="preserve">
<g>
	<rect x="3.699" y="12.517" width="6.317" height="1.349"/>
	<rect x="9.919" y="2.553" transform="matrix(-0.171 -0.9853 0.9853 -0.171 12.134 16.6649)" width="6.318" height="1.35"/>
	<polygon points="10.045,12.128 3.754,11.549 3.878,10.205 10.168,10.785 	"/>
	<rect x="4.199" y="8.182" transform="matrix(-0.9657 -0.2596 0.2596 -0.9657 12.1634 19.3181)" width="6.317" height="1.349"/>
	<polygon points="10.693,8.644 5.252,5.434 5.938,4.272 11.379,7.48 	"/>
	<polygon points="11.598,7.296 8.039,2.077 9.154,1.317 12.713,6.536 	"/>
	<polygon points="11.076,9.403 11.076,14.967 2.792,14.967 2.792,9.403 1.717,9.403 1.717,15.979 1.735,15.979 2.05,15.979 
		12.15,15.979 12.15,16 12.15,15.685 12.15,9.403 	"/>
</g>
</svg>
