<?xml version="1.0" encoding="utf-8"?>
<!-- Generator: Adobe Illustrator 15.0.0, SVG Export Plug-In . SVG Version: 6.00 Build 0)  -->
<!DOCTYPE svg PUBLIC "-//W3C//DTD SVG 1.1//EN" "http://www.w3.org/Graphics/SVG/1.1/DTD/svg11.dtd">
<svg version="1.1" id="Camada_1" xmlns="http://www.w3.org/2000/svg" xmlns:xlink="http://www.w3.org/1999/xlink" x="0px" y="0px"
	 width="43.176px" height="40px" viewBox="0 0 43.176 40" enable-background="new 0 0 43.176 40" xml:space="preserve">
<g>
	<path fill="#FFFFFF" d="M27.27,20.001c0-3.138-2.543-5.682-5.682-5.682c-3.138,0-5.681,2.544-5.681,5.682
		c0,3.136,2.543,5.681,5.681,5.681C24.727,25.682,27.27,23.137,27.27,20.001"/>
	<path fill="#FFFFFF" d="M42.363,18.093l-4.922-8.521c-0.018-0.031-0.039-0.059-0.06-0.089l-3.766-6.525
		c-0.701-1.214-1.972-1.894-3.28-1.895H12.841c-1.402,0-2.625,0.762-3.28,1.894L4.642,11.48l0,0l4.372,7.572l6.015-10.417
		l20.773,0.001c0.654,0.001,1.289,0.34,1.64,0.946h-8.737l6.007,10.404l-6.57,11.377l0,0l-3.818,6.615
		c-0.328,0.563-0.938,0.944-1.639,0.944l4.364-7.562h-12.02l-6.05-10.479l0,0l-0.511-0.885l0.001-0.001l-3.826-6.626
		c-0.325-0.564-0.35-1.28-0.004-1.885l-3.824,6.619c-0.701,1.214-0.653,2.654,0,3.788l8.747,15.15
		c0.701,1.213,1.972,1.893,3.28,1.893h9.841c0.072,0,0.143-0.006,0.211-0.014h7.441c1.402,0,2.626-0.762,3.281-1.893l8.746-15.15
		C43.063,20.667,43.016,19.227,42.363,18.093 M12.841,6.178c-0.628,0-1.137-0.509-1.137-1.138c0-0.628,0.509-1.137,1.137-1.137
		s1.138,0.509,1.138,1.137C13.979,5.669,13.47,6.178,12.841,6.178 M30.904,6.026c-0.545,0.313-1.24,0.127-1.553-0.416
		c-0.314-0.545-0.129-1.24,0.416-1.554c0.543-0.314,1.238-0.128,1.553,0.416C31.635,5.017,31.449,5.712,30.904,6.026 M5.079,20.76
		c-0.313,0.543-1.009,0.73-1.553,0.416c-0.544-0.313-0.73-1.01-0.417-1.554s1.009-0.73,1.554-0.416
		C5.207,19.52,5.393,20.216,5.079,20.76 M13.409,36.326c-0.544,0.314-1.24,0.127-1.554-0.416c-0.314-0.545-0.127-1.24,0.417-1.555
		c0.544-0.315,1.239-0.127,1.554,0.418C14.139,35.316,13.953,36.012,13.409,36.326 M30.334,36.479c-0.628,0-1.137-0.508-1.137-1.137
		c0-0.627,0.509-1.137,1.137-1.137s1.139,0.51,1.139,1.137C31.473,35.971,30.962,36.479,30.334,36.479 M40.066,20.761
		c-0.313,0.544-1.01,0.729-1.553,0.415c-0.545-0.313-0.73-1.009-0.416-1.553c0.313-0.544,1.008-0.73,1.553-0.416
		S40.381,20.217,40.066,20.761"/>
</g>
</svg>
