<?xml version="1.0" encoding="utf-8"?>
<!-- Generator: Adobe Illustrator 15.0.0, SVG Export Plug-In . SVG Version: 6.00 Build 0)  -->
<!DOCTYPE svg PUBLIC "-//W3C//DTD SVG 1.1//EN" "http://www.w3.org/Graphics/SVG/1.1/DTD/svg11.dtd">
<svg version="1.1" id="Camada_1" xmlns="http://www.w3.org/2000/svg" xmlns:xlink="http://www.w3.org/1999/xlink" x="0px" y="0px"
	 width="300px" height="40px" viewBox="0 0 300 40" enable-background="new 0 0 300 40" xml:space="preserve">
<g>
	<path fill="#FFFFFF" d="M26.963,19.866c0-3.138-2.543-5.681-5.681-5.681c-3.138,0-5.681,2.543-5.681,5.681
		c0,3.136,2.543,5.681,5.681,5.681C24.419,25.547,26.963,23.002,26.963,19.866"/>
	<path fill="#FFFFFF" d="M42.057,17.958l-4.921-8.522c-0.018-0.031-0.04-0.059-0.06-0.088L33.31,2.822
		c-0.701-1.214-1.972-1.893-3.28-1.895H12.535c-1.402,0-2.625,0.762-3.28,1.894l-4.919,8.523l0,0l4.372,7.572L14.722,8.5
		l20.773,0.001c0.654,0,1.289,0.339,1.64,0.946h-8.738l6.007,10.404l-6.57,11.377h-0.001l-3.818,6.614
		c-0.328,0.564-0.938,0.945-1.639,0.945l4.365-7.562H14.722l-6.05-10.479l0,0L8.16,19.864l0.001-0.001l-3.826-6.626
		c-0.325-0.564-0.35-1.28-0.004-1.884l-3.824,6.619c-0.701,1.214-0.653,2.654,0,3.789l8.747,15.15
		c0.701,1.213,1.972,1.894,3.28,1.894h9.841c0.072,0,0.142-0.007,0.211-0.015h7.441c1.402,0,2.626-0.763,3.281-1.894l8.747-15.149
		C42.757,20.532,42.709,19.091,42.057,17.958 M12.535,6.043c-0.628,0-1.137-0.509-1.137-1.138c0-0.628,0.509-1.137,1.137-1.137
		s1.138,0.509,1.138,1.137C13.673,5.534,13.164,6.043,12.535,6.043 M30.598,5.891c-0.544,0.314-1.24,0.127-1.553-0.416
		c-0.314-0.544-0.128-1.24,0.416-1.554s1.239-0.128,1.554,0.416C31.329,4.881,31.143,5.577,30.598,5.891 M4.772,20.625
		c-0.313,0.543-1.009,0.73-1.553,0.417c-0.544-0.313-0.729-1.01-0.417-1.554c0.314-0.544,1.009-0.73,1.554-0.417
		C4.9,19.385,5.087,20.081,4.772,20.625 M13.103,36.191c-0.544,0.313-1.24,0.127-1.554-0.416c-0.314-0.545-0.127-1.24,0.417-1.555
		c0.544-0.316,1.239-0.128,1.554,0.418C13.833,35.182,13.647,35.877,13.103,36.191 M30.028,36.344c-0.628,0-1.137-0.508-1.137-1.137
		c0-0.627,0.509-1.137,1.137-1.137c0.628,0,1.138,0.51,1.138,1.137C31.166,35.836,30.656,36.344,30.028,36.344 M39.761,20.625
		c-0.314,0.544-1.01,0.73-1.554,0.416s-0.73-1.009-0.416-1.553c0.313-0.544,1.009-0.73,1.553-0.417
		C39.889,19.386,40.075,20.082,39.761,20.625"/>
	<path fill="#FFFFFF" d="M159.484,13.827c-2.064,0-3.689,0.661-4.877,1.982c-1.187,1.322-1.778,3.131-1.778,5.427
		c0,2.351,0.56,4.175,1.678,5.474c1.119,1.299,2.718,1.949,4.798,1.949c1.381,0,2.65-0.179,3.807-0.529v1.015
		c-1.088,0.383-2.447,0.573-4.076,0.573c-2.313,0-4.133-0.747-5.463-2.241c-1.327-1.494-1.992-3.58-1.992-6.261
		c0-1.675,0.316-3.15,0.952-4.426c0.634-1.276,1.546-2.262,2.735-2.956s2.573-1.042,4.149-1.042c1.606,0,3.044,0.301,4.313,0.901
		l-0.463,1.036C162.066,14.127,160.807,13.827,159.484,13.827"/>
	<rect x="166.27" y="11.968" fill="#FFFFFF" width="1.115" height="17.524"/>
	<path fill="#FFFFFF" d="M171.715,23.354c0,1.683,0.37,2.994,1.109,3.937c0.738,0.942,1.785,1.414,3.137,1.414
		s2.396-0.472,3.137-1.414c0.738-0.94,1.108-2.254,1.108-3.937c0-1.688-0.374-2.999-1.121-3.93
		c-0.747-0.931-1.796-1.396-3.147-1.396c-1.351,0-2.393,0.463-3.125,1.391C172.081,20.346,171.715,21.656,171.715,23.354
		 M181.377,23.354c0,1.998-0.484,3.558-1.453,4.681c-0.968,1.123-2.304,1.684-4.009,1.684c-1.074,0-2.021-0.26-2.838-0.776
		c-0.818-0.518-1.444-1.262-1.88-2.23c-0.437-0.967-0.653-2.086-0.653-3.355c0-1.998,0.483-3.551,1.452-4.667
		c0.969-1.115,2.298-1.672,3.986-1.672c1.683,0,3.002,0.565,3.959,1.695S181.377,21.387,181.377,23.354"/>
	<path fill="#FFFFFF" d="M185.505,17.25v7.928c0,1.232,0.259,2.127,0.776,2.688c0.518,0.559,1.32,0.838,2.41,0.838
		c1.455,0,2.527-0.367,3.215-1.104c0.688-0.735,1.029-1.934,1.029-3.592V17.25h1.104v12.24h-0.944l-0.203-1.688h-0.067
		c-0.796,1.275-2.212,1.914-4.245,1.914c-2.786,0-4.178-1.489-4.178-4.471V17.25H185.505z"/>
	<path fill="#FFFFFF" d="M202.393,18.027c-1.338,0-2.342,0.47-3.014,1.408s-1.009,2.301-1.009,4.088
		c0,3.467,1.348,5.201,4.043,5.201c1.382,0,2.396-0.4,3.041-1.203c0.646-0.806,0.969-2.129,0.969-3.978v-0.19
		c0-1.894-0.317-3.252-0.952-4.083C204.836,18.442,203.811,18.027,202.393,18.027 M202.393,17.014c0.885,0,1.65,0.162,2.297,0.484
		c0.646,0.323,1.223,0.875,1.733,1.656h0.067c-0.045-0.946-0.067-1.874-0.067-2.782v-4.403h1.103v17.523h-0.73l-0.281-1.871h-0.09
		c-0.932,1.396-2.268,2.096-4.01,2.096c-1.688,0-2.98-0.525-3.873-1.576c-0.895-1.053-1.341-2.584-1.341-4.596
		c0-2.117,0.442-3.735,1.329-4.853C199.414,17.573,200.702,17.014,202.393,17.014"/>
	<path fill="#FFFFFF" d="M218.598,21.697h2.262c1.854,0,3.195-0.305,4.021-0.918c0.825-0.611,1.238-1.604,1.238-2.979
		c0-1.269-0.391-2.209-1.171-2.821s-1.989-0.917-3.626-0.917h-2.725V21.697L218.598,21.697z M227.357,17.757
		c0,1.592-0.541,2.812-1.623,3.659c-1.08,0.85-2.611,1.273-4.594,1.273h-2.545v6.803h-1.147V13.027h4.03
		C225.396,13.027,227.357,14.604,227.357,17.757"/>
	<rect x="230.426" y="11.968" fill="#FFFFFF" width="1.115" height="17.524"/>
	<path fill="#FFFFFF" d="M238.338,28.703c1.307,0,2.337-0.373,3.092-1.121c0.754-0.746,1.131-1.785,1.131-3.113v-1.205l-2.14,0.09
		c-1.72,0.082-2.944,0.353-3.677,0.806c-0.732,0.455-1.098,1.161-1.098,2.123c0,0.766,0.233,1.36,0.703,1.784
		C236.818,28.49,237.48,28.703,238.338,28.703 M242.842,29.49l-0.281-1.936h-0.09c-0.615,0.788-1.248,1.346-1.896,1.672
		c-0.649,0.325-1.417,0.489-2.303,0.489c-1.203,0-2.138-0.309-2.806-0.924s-1.002-1.467-1.002-2.558c0-1.192,0.497-2.12,1.492-2.78
		c0.994-0.66,2.435-1.011,4.317-1.047l2.332-0.068v-0.812c0-1.163-0.236-2.042-0.709-2.634c-0.475-0.593-1.235-0.889-2.287-0.889
		c-1.133,0-2.309,0.315-3.524,0.946l-0.416-0.968c1.345-0.63,2.672-0.947,3.985-0.947c1.345,0,2.349,0.35,3.014,1.048
		c0.664,0.698,0.996,1.787,0.996,3.267v8.141H242.842z"/>
	<path fill="#FFFFFF" d="M250.63,28.725c0.705,0,1.321-0.059,1.847-0.18v0.9c-0.541,0.182-1.164,0.271-1.869,0.271
		c-1.082,0-1.879-0.289-2.394-0.866c-0.515-0.578-0.771-1.486-0.771-2.728v-7.904h-1.813v-0.653l1.813-0.507l0.563-2.77h0.574v2.962
		h3.593v0.968h-3.593v7.748c0,0.938,0.165,1.634,0.495,2.082C249.404,28.5,249.924,28.725,250.63,28.725"/>
	<path fill="#FFFFFF" d="M259.441,18.219h-2.883V29.49h-1.115V18.219h-2.274v-0.653l2.274-0.417v-0.946
		c0-1.501,0.275-2.603,0.828-3.305c0.552-0.702,1.453-1.053,2.709-1.053c0.675,0,1.351,0.102,2.025,0.304l-0.259,0.968
		c-0.601-0.188-1.198-0.281-1.791-0.281c-0.87,0-1.487,0.257-1.853,0.771c-0.364,0.515-0.547,1.35-0.547,2.506v1.138h2.883v0.968
		H259.441z"/>
	<path fill="#FFFFFF" d="M262.037,23.354c0,1.683,0.37,2.994,1.109,3.937c0.738,0.942,1.785,1.414,3.137,1.414
		c1.351,0,2.396-0.472,3.136-1.414c0.739-0.94,1.108-2.254,1.108-3.937c0-1.688-0.373-2.999-1.119-3.93
		c-0.747-0.931-1.797-1.396-3.147-1.396c-1.352,0-2.394,0.463-3.125,1.391C262.402,20.346,262.037,21.656,262.037,23.354
		 M271.699,23.354c0,1.998-0.483,3.558-1.452,4.681c-0.97,1.123-2.306,1.684-4.009,1.684c-1.074,0-2.021-0.26-2.838-0.776
		c-0.818-0.518-1.445-1.262-1.881-2.23c-0.437-0.967-0.653-2.086-0.653-3.355c0-1.998,0.483-3.551,1.452-4.667
		c0.97-1.115,2.298-1.672,3.986-1.672c1.682,0,3.002,0.565,3.959,1.695C271.22,19.842,271.699,21.387,271.699,23.354"/>
	<path fill="#FFFFFF" d="M279.68,17.014c0.518,0,1.072,0.053,1.665,0.158l-0.214,1.07c-0.511-0.127-1.039-0.192-1.587-0.192
		c-1.044,0-1.899,0.443-2.567,1.329c-0.668,0.886-1.002,2.004-1.002,3.355v6.759h-1.115V17.25h0.945l0.113,2.207h0.078
		c0.503-0.901,1.04-1.534,1.609-1.897C278.177,17.196,278.868,17.014,279.68,17.014"/>
	<path fill="#FFFFFF" d="M298.896,29.49v-8.029c0-1.192-0.232-2.063-0.697-2.612c-0.467-0.548-1.18-0.822-2.141-0.822
		c-1.254,0-2.182,0.345-2.781,1.036c-0.602,0.69-0.9,1.775-0.9,3.253v7.174h-1.138v-8.367c0-2.063-0.945-3.096-2.839-3.096
		c-1.282,0-2.219,0.374-2.803,1.121c-0.586,0.747-0.88,1.942-0.88,3.586v6.756h-1.114V17.25h0.924l0.236,1.678h0.067
		c0.338-0.608,0.817-1.079,1.44-1.414c0.623-0.333,1.311-0.501,2.062-0.501c1.929,0,3.168,0.725,3.716,2.174h0.047
		c0.396-0.698,0.932-1.235,1.604-1.61c0.671-0.375,1.436-0.563,2.292-0.563c1.336,0,2.338,0.357,3.006,1.07s1.003,1.847,1.003,3.4
		v8.007L298.896,29.49L298.896,29.49z"/>
	<path fill="#FFFFFF" d="M117.465,24.746c0.694-0.701,0.757-1.672,0.757-2.219c0-2.181-1.305-5.579-3.809-5.579
		c-0.79,0-1.634,0.391-2.119,0.999c-0.514,0.638-0.667,1.453-0.667,2.246c0,2.032,1.181,5.407,3.784,5.407
		C116.16,25.6,116.979,25.234,117.465,24.746 M116.585,30.512c-0.239-0.027-0.392-0.027-0.69-0.027c-0.275,0-1.91,0.056-3.178,0.48
		c-0.666,0.246-2.602,0.979-2.602,3.129c0,2.152,2.093,3.707,5.327,3.707c2.895,0,4.44-1.402,4.44-3.281
		C119.882,32.971,118.886,32.158,116.585,30.512 M118.735,17.034c0.692,0.582,2.146,1.792,2.146,4.099
		c0,2.248-1.276,3.309-2.544,4.314c-0.388,0.396-0.843,0.816-0.843,1.488c0,0.666,0.455,1.026,0.786,1.301l1.089,0.85
		c1.329,1.123,2.541,2.15,2.541,4.252c0,2.848-2.754,5.734-7.955,5.734c-4.381,0-6.497-2.094-6.497-4.344
		c0-1.088,0.54-2.633,2.33-3.701c1.87-1.15,4.412-1.305,5.771-1.396c-0.419-0.545-0.911-1.123-0.911-2.063
		c0-0.514,0.156-0.82,0.307-1.182c-0.336,0.03-0.666,0.059-0.97,0.059c-3.205,0-5.016-2.4-5.016-4.766
		c0-1.401,0.639-2.943,1.935-4.064c1.72-1.432,3.777-1.674,5.411-1.674h6.228l-1.937,1.092L118.735,17.034L118.735,17.034z"/>
	<path fill="#FFFFFF" d="M103.471,27.572c0.726-0.971,0.912-2.176,0.912-3.367c0-2.666-1.27-7.753-5.011-7.753
		c-1,0-1.996,0.39-2.722,1.029c-1.175,1.058-1.391,2.39-1.391,3.697c0,3.002,1.484,7.939,5.137,7.939
		C101.568,29.117,102.779,28.545,103.471,27.572 M99.699,30.025c-4.799,0-7.364-3.76-7.364-7.15c0-3.971,3.227-7.365,7.818-7.365
		c4.435,0,7.212,3.486,7.212,7.15C107.365,26.236,104.621,30.025,99.699,30.025"/>
	<path fill="#FFFFFF" d="M87.112,27.572c0.729-0.971,0.904-2.176,0.904-3.367c0-2.666-1.264-7.753-5.011-7.753
		c-0.996,0-1.987,0.39-2.714,1.029c-1.177,1.058-1.389,2.39-1.389,3.697c0,3.002,1.478,7.939,5.128,7.939
		C85.21,29.117,86.419,28.545,87.112,27.572 M83.338,30.025c-4.802,0-7.364-3.76-7.364-7.15c0-3.971,3.227-7.365,7.817-7.365
		c4.438,0,7.217,3.486,7.217,7.15C91.009,26.236,88.26,30.025,83.338,30.025"/>
	<path fill="#FFFFFF" d="M128.327,28.68c-1.004-0.098-1.214-0.281-1.214-1.465v-0.34V9.969c0.009-0.068,0.012-0.131,0.02-0.197
		c0.122-1.071,0.428-1.248,1.365-1.802h-4.34l-2.279,1.097h2.324v0.016L124.2,9.078v17.797v1.01c0,0.609-0.122,0.697-0.822,1.607
		h5.372l1.131-0.67C129.361,28.77,128.843,28.732,128.327,28.68"/>
	<path fill="#FFFFFF" d="M137.846,19.938c0.573-0.213,0.874-0.392,0.874-0.813c0-1.216-1.356-2.61-2.985-2.61
		c-1.207,0-3.469,0.945-3.469,4.211c0,0.515,0.066,1.058,0.091,1.597L137.846,19.938z M140.677,28.955
		c-0.332,0.184-0.666,0.398-0.997,0.545c-0.991,0.459-2.016,0.574-2.921,0.574c-0.964,0-2.468-0.057-4.015-1.186
		c-2.129-1.503-3.074-4.111-3.074-6.382c0-4.689,3.804-6.987,6.907-6.987c1.086,0,2.208,0.276,3.103,0.845
		c1.507,0.996,1.904,2.297,2.109,2.995l-7.076,2.875l-2.327,0.184c0.752,3.846,3.348,6.084,6.214,6.084
		c1.533,0,2.646-0.545,3.673-1.055L140.677,28.955z"/>
	<path fill="#FFFFFF" d="M73.664,29.551l-4.337,1.006c-1.762,0.273-3.337,0.523-5.006,0.523c-8.376,0-11.56-6.191-11.56-11.035
		c0-5.911,4.521-11.392,12.254-11.392c1.64,0,3.223,0.242,4.647,0.637c2.271,0.641,3.339,1.439,4.002,1.888l-2.513,2.405
		l-1.063,0.245l0.756-1.218c-1.035-1.004-2.913-2.856-6.492-2.856c-4.796,0-8.406,3.653-8.406,8.984
		c0,5.728,4.128,11.118,10.741,11.118c1.945,0,2.945-0.397,3.856-0.764v-4.902l-4.583,0.238l2.423-1.305h6.433l-0.785,0.764
		c-0.213,0.178-0.246,0.238-0.304,0.48c-0.031,0.279-0.062,1.166-0.062,1.471L73.664,29.551L73.664,29.551z"/>
</g>
</svg>
