<?xml version="1.0" encoding="utf-8"?>
<!-- Generator: Adobe Illustrator 19.2.1, SVG Export Plug-In . SVG Version: 6.00 Build 0)  -->
<svg version="1.1" id="Layer_1" xmlns="http://www.w3.org/2000/svg" xmlns:xlink="http://www.w3.org/1999/xlink" x="0px" y="0px"
     width="24px" height="24px" viewBox="0 0 24 24" style="enable-background:new 0 0 24 24;" xml:space="preserve">
<style type="text/css">
    .st0{fill:#FFFFFF;}
</style>
<g>
    <path class="st0" d="M14.9,13.9c-0.2,0-0.4,0-0.6-0.1v3c0,0.7-0.4,1.4-1,1.7c-0.4,0.2-0.8,0.4-1.3,0.4c-0.7,0.1-1.3,0.1-2,0
        c-0.6-0.1-1.1-0.2-1.6-0.5c-0.1,0.1-0.3-0.1-0.4-0.2c0-0.1-0.1-0.1-0.2-0.1C7.4,18,7,17.9,6.6,17.6C6,17.3,5.7,16.7,5.7,16v-5
        c-0.5-0.1-1.1,0.1-1.3,0.6c-0.1,0.3-0.2,0.5-0.2,0.8c-0.1,0.5-0.1,1-0.2,1.5c-0.1,0.5-0.1,1.1-0.1,1.6c0,0.4-0.1,0.8-0.1,1.1
        c0,0.2,0,0.4-0.1,0.6c-0.1,0.4-0.3,0.7-0.7,0.9c-0.4,0.2-0.9,0.3-1.4,0.2c-0.2,0-0.4-0.1-0.6-0.1c-0.6,0-1-0.5-1-1.1
        c0,0,0-0.1,0-0.1V6.9c-0.1-0.7,0-1.5,0.3-2.2c0.3-1.1,1-1.9,2-2.4C2.9,2,3.5,1.8,4.2,1.7h0.1c0.2,0,0.3-0.1,0.4-0.2
        c0.4-0.3,0.8-0.7,1.2-1C6.3,0.2,6.9,0,7.4,0C7.7,0,8,0.1,8.3,0.3h0.2C8.7,0.2,9,0.1,9.2,0.1c1-0.2,1.9,0.2,2.5,1
        c0.1,0.1,0.2,0.1,0.3,0.1h4.6c1.2,0,2.5,0.2,3.6,0.7c1.3,0.5,2.3,1.5,3,2.7c0.4,0.6,0.6,1.4,0.7,2.1C24,7.2,24,7.8,24,8.3
        c0,0.7-0.1,1.3-0.4,1.9v6.5c0,0.3,0,0.5-0.1,0.8c-0.2,0.5-0.5,0.9-0.9,1.1c-0.4,0.2-0.8,0.4-1.3,0.4c-0.8,0.1-1.5,0.1-2.3,0
        c-0.5-0.1-1-0.3-1.5-0.6c-0.1-0.1-0.3-0.1-0.4-0.1c-0.5-0.1-1-0.2-1.4-0.5c-0.5-0.3-0.8-0.9-0.8-1.5C14.9,16.3,14.9,13.9,14.9,13.9
        z M16.8,13.2L16.8,13.2c0-0.4,0.3-0.6,0.6-0.4c0.1,0.1,0.2,0.2,0.2,0.3v3.8c0,0.3,0.1,0.6,0.4,0.8c0.2,0.2,0.5,0.3,0.8,0.4
        c0.6,0.2,1.2,0.2,1.8,0.2c0.2,0,0.4,0,0.6-0.1c0.4-0.1,0.8-0.2,1.1-0.4c0.2-0.1,0.3-0.4,0.4-0.6c0-0.2,0.1-0.4,0.1-0.6v-6.5
        c0-0.2,0.1-0.4,0.2-0.5c0.2-0.7,0.2-1.5,0.2-2.2c0-0.5-0.1-1-0.3-1.4c-0.2-0.8-0.6-1.5-1.2-2c-0.6-0.7-1.4-1.2-2.2-1.5
        c-1-0.4-2-0.6-3.1-0.5c-1.4,0-2.9,0-4.3,0.1l0,0v0.1c0.2,0.4,0.3,0.9,0.4,1.4c0.1,0.6,0.1,1.1,0.2,1.7c0,0.6,0,1.2-0.2,1.8
        c-0.1,0.6-0.5,1-0.9,1.4c-0.4,0.3-0.8,0.5-1.3,0.6c-0.2,0-0.4,0.1-0.6,0.2C9.6,9.4,9.5,9.5,9.4,9.6v0.3c0,0.2-0.1,0.3-0.3,0.3
        c-0.2,0-0.4-0.1-0.4-0.3c0,0,0,0,0,0V9.5c0-0.4,0.3-0.8,0.7-0.9c0.2-0.2,0.5-0.3,0.8-0.4c0.5-0.1,1-0.4,1.3-0.8
        c0.3-0.4,0.4-1,0.4-1.5c0.1-1,0-1.9-0.2-2.9c-0.1-0.5-0.3-1-0.6-1.5c-0.4-0.7-1.4-1-2.1-0.6C8.6,1,8.3,1.2,8,1.4
        C7.6,1.6,7.2,1.9,6.8,2.1c-0.1,0.1-0.3,0.1-0.4,0H6.3C5.7,2.2,5.2,2.2,4.7,2.3C4,2.4,3.4,2.5,2.8,2.8c-1,0.4-1.7,1.3-1.9,2.4
        C0.8,5.8,0.7,6.4,0.7,7v10l0,0c0,0.4,0.2,0.7,0.6,0.7H2c0.2,0,0.4,0,0.6-0.2c0.1-0.1,0.2-0.2,0.3-0.4c0-0.4,0.1-0.8,0.1-1.3
        c0-0.5,0.1-0.8,0.1-1.2s0.1-0.8,0.1-1.1c0.1-0.5,0.1-0.9,0.2-1.4c0.1-0.4,0.2-0.8,0.5-1.1c0.4-0.4,0.9-0.7,1.5-0.6
        c0.2,0,0.5-0.1,0.7-0.2c0.2-0.1,0.3-0.3,0.4-0.5c0.3-0.5,0.4-1,0.4-1.5c0-0.1,0-0.2-0.1-0.2C6.6,7.9,6.4,7.8,6.2,7.6
        c-0.1-0.1-0.1-0.2,0-0.3c0,0,0,0,0,0c0.2-0.1,0.3-0.1,0.5,0c0.2,0.2,0.5,0.3,0.7,0.1c0.1-0.1,0.1-0.1,0.2-0.2c0-0.1,0-0.1,0.1-0.1
        c0,0,0,0,0,0C7.8,7,8,7,8.1,7c0.1,0.1,0.2,0.2,0.1,0.3C8.1,7.6,7.9,7.8,7.6,7.9L7.5,8c0,0.3,0,0.5-0.1,0.8
        c-0.1,0.6-0.3,1.1-0.7,1.5c-0.1,0.1-0.2,0.2-0.2,0.3l0.9,0.3h0.1c0.1-0.2,0.3-0.2,0.5-0.1c0,0,0,0,0,0c0.1,0.1,0.1,0.2,0.1,0.3V17
        c0,0.6,0.3,1.1,0.8,1.3c0.3-0.1,0.6-0.1,0.9,0c0.8,0.1,1.5,0.1,2.3,0c0.4-0.1,0.8-0.2,1.1-0.5c0.2-0.1,0.3-0.3,0.3-0.5
        c0-0.2,0.1-0.4,0.1-0.6v-3.9c0.1-0.1,0.2-0.2,0.4-0.2c0.1,0,0.2,0.1,0.3,0.2V13c0,0.1,0,0.1,0.1,0.1h0H16
        C16.3,13.2,16.5,13.2,16.8,13.2z M6.3,11.2L6.3,11.2v4.9c0,0.3,0.1,0.6,0.3,0.8c0.2,0.2,0.5,0.3,0.8,0.4h0.1v-5.7
        c0-0.1,0-0.1-0.1-0.1c-0.2-0.1-0.5-0.1-0.7-0.2C6.6,11.3,6.4,11.2,6.3,11.2z M16.9,17.4L16.9,17.4c0-0.2-0.1-0.3-0.1-0.5v-3h-0.1
        c-0.3,0-0.7,0.1-1,0.1c-0.1,0-0.1,0-0.1,0.1v2.1c0,0.2,0,0.3,0.1,0.5C16,17.1,16.4,17.3,16.9,17.4z M5.8,1.4c0.2,0,0.5,0,0.7-0.1
        h0.1C7,1.2,7.3,1,7.6,0.8h0.1C7,0.6,6.3,0.9,5.8,1.4z"/>
    <path class="st0" d="M4.7,5.2C4.6,5.4,4.4,5.6,4.1,5.7h0.4c0.4,0,0.7,0.4,0.6,0.8c0,0,0,0.1,0,0.1C4.9,7.2,4.3,7.5,3.8,7.3
        c0,0,0,0-0.1,0c-0.1,0-0.2,0-0.2-0.1C3.3,7,3.1,6.8,3.1,6.5C3,6.1,3.1,5.7,3.5,5.6c0.3-0.2,0.7-0.3,1-0.4C4.5,5.2,4.7,5.2,4.7,5.2z
         M4,6.8L4.2,7c0.1,0.1,0.3,0.1,0.4,0.1C4.7,7,4.8,6.9,4.8,6.7c0-0.2-0.2-0.4-0.4-0.5c-0.1,0-0.3,0.1-0.3,0.2c0,0,0,0,0,0
        c0.1,0.1,0.2,0.1,0.3,0.2C4.2,6.6,4.1,6.7,4,6.8z M4.2,7.2L4.2,7.2c-0.4,0-0.6-0.3-0.6-0.6C3.7,6.2,3.9,6,4.3,5.9
        c0.1,0,0.3,0,0.4,0.1H4.6C4.3,5.9,4,5.9,3.7,6.1C3.5,6.2,3.4,6.4,3.4,6.6c0,0.4,0.3,0.6,0.7,0.6C4.1,7.2,4.2,7.2,4.2,7.2z"/>
    <path class="st0" d="M2.2,4.7c0.1-0.1,0.1-0.1,0.1-0.2C2.6,4.2,3,4,3.4,3.9C3.8,3.8,4.3,3.8,4.7,4c0.1,0,0.2,0,0.2,0.1
        c0.1,0,0.1,0.1,0,0.2H4.7c-0.2,0-0.4-0.1-0.6-0.1c-0.5,0-1,0.2-1.4,0.6L2.6,4.9C2.5,5,2.4,5,2.3,4.9c0,0,0,0,0,0
        C2.2,4.9,2.2,4.8,2.2,4.7z"/>
</g>
</svg>