<?xml version="1.0" encoding="utf-8"?>
<!-- Generator: Adobe Illustrator 15.0.0, SVG Export Plug-In . SVG Version: 6.00 Build 0)  -->
<!DOCTYPE svg PUBLIC "-//W3C//DTD SVG 1.1//EN" "http://www.w3.org/Graphics/SVG/1.1/DTD/svg11.dtd">
<svg version="1.1" id="Camada_1" xmlns="http://www.w3.org/2000/svg" xmlns:xlink="http://www.w3.org/1999/xlink" x="0px" y="0px"
	 width="24px" height="24px" viewBox="0 0 24 24" enable-background="new 0 0 24 24" xml:space="preserve">
<g id="layer6" transform="translate(-273.27313,-435.95455)">
	<path id="path3966" fill="#FFFFFF" d="M275.871,459.734h11.715c0,0-2.6-5.9-1.938-11.317c0.661-5.416,4.933-7.882,7.354-8.146
		s3.741,1.233,3.741,1.233l0.529-0.793c0,0-3.479-3.523-7.884-3.126c-4.402,0.396-7.441,3.302-9.334,6.825
		c-1.894,3.523-2.995,5.988-3.744,9.688C275.564,457.796,275.871,459.734,275.871,459.734z"/>
	<path id="path3968" fill="#FFFFFF" d="M273.538,453.833l2.29,0.176l-0.396,2.289l-2.157-0.264L273.538,453.833z"/>
	<path id="path3970" fill="#FFFFFF" d="M277.149,448.99l0.617-1.718l-2.026-0.792l-0.661,1.849L277.149,448.99z"/>
	<path id="path3972" fill="#FFFFFF" d="M280.011,443.088l1.188-1.409l-1.541-1.013l-1.232,1.365L280.011,443.088z"/>
	<path id="path3974" fill="#FFFFFF" d="M283.137,437.628l1.057,1.276l1.453-0.836l-1.057-1.188L283.137,437.628z"/>
	<path id="path3976" fill="#FFFFFF" d="M288.291,436.175l0.264,1.277l1.806-0.045l-0.177-1.145L288.291,436.175z"/>
	<path id="path3978" fill="#FFFFFF" d="M294.412,437.54l-0.045,0.793l1.232,0.66l0.266-0.396L294.412,437.54z"/>
	<path id="path3980" fill="#FFFFFF" d="M294.146,440.931v0.661l1.189,0.132v-0.528L294.146,440.931z"/>
	<path id="path3982" fill="#FFFFFF" d="M290.359,441.503l0.572,1.056l0.838-0.66l-0.176-0.705L290.359,441.503z"/>
	<path id="path3984" fill="#FFFFFF" d="M288.554,442.869l0.881,1.321l-0.529,0.924l-1.277-1.409L288.554,442.869z"/>
	<path id="path3986" fill="#FFFFFF" d="M286.793,446.523l-0.572,1.145l1.496,1.277l0.354-1.453L286.793,446.523z"/>
	<path id="path3988" fill="#FFFFFF" d="M286.175,450.531l-0.088,1.541l1.851,0.793l-0.089-1.453L286.175,450.531z"/>
	<path id="path3990" fill="#FFFFFF" d="M286.705,455.992l0.439,1.586l2.334,0.131l-0.836-1.717H286.705L286.705,455.992z"/>
</g>
</svg>
