<?xml version="1.0" encoding="utf-8"?>
<!-- Generator: Adobe Illustrator 19.2.1, SVG Export Plug-In . SVG Version: 6.00 Build 0)  -->
<svg version="1.1" id="Layer_1" xmlns="http://www.w3.org/2000/svg" xmlns:xlink="http://www.w3.org/1999/xlink" x="0px" y="0px"
     width="24px" height="24px" viewBox="0 0 24 24" style="enable-background:new 0 0 24 24;" xml:space="preserve">
<style type="text/css">
    .st0{fill:#5F5F5F;}
</style>
<g>
    <path class="st0" d="M14.5,15.8H14v2.6c0,0.6-0.3,1.2-0.8,1.5c-0.3,0.2-0.7,0.3-1.1,0.4c-0.6,0.1-1.1,0.1-1.7,0
        c-0.5,0-0.9-0.2-1.3-0.4c-0.2-0.1-0.3-0.3-0.5-0.4c-0.1-0.1-0.1-0.1-0.2-0.1c-0.4-0.1-0.7-0.2-1.1-0.4c-0.5-0.3-0.8-0.8-0.8-1.4
        v-4.3c-0.5-0.1-0.9,0.1-1.2,0.5c-0.1,0.2-0.2,0.5-0.2,0.7C5.1,14.9,5,15.4,5,15.8c0,0.5-0.1,0.9-0.1,1.4c0,0.3,0,0.7-0.1,1
        c0,0.2,0,0.4-0.1,0.5c-0.1,0.3-0.3,0.6-0.6,0.7c-0.4,0.2-0.8,0.2-1.1,0.1c-0.2,0-0.4,0-0.5-0.1C2,19.4,1.6,19,1.7,18.5
        c0-2.9,0-5.9,0-8.8c0-0.7,0.1-1.3,0.2-1.9c0.3-0.9,0.9-1.6,1.8-2c0.5-0.2,1.1-0.4,1.6-0.5h0.1c0.1,0,0.2-0.1,0.3-0.2
        c0.3-0.3,0.7-0.6,1-0.8C7,3.8,7.5,3.7,8,3.7c0.3,0,0.6,0.1,0.9,0.3H9c0.2-0.1,0.4-0.1,0.6-0.2c0.8-0.2,1.6,0.2,2.1,0.9
        c0,0.1,0.1,0.1,0.2,0.1h3.9c1.1,0,2.1,0.2,3.1,0.6c1.1,0.5,2,1.3,2.6,2.3c0.3,0.5,0.6,1.1,0.7,1.7c0.1,0.5,0.1,0.9,0.1,1.4
        c0,0.6-0.1,1.1-0.3,1.7c0,0,0,0.1,0,0.1v5.5c0,0.2,0,0.5-0.1,0.7c-0.1,0.4-0.4,0.8-0.8,1c-0.4,0.2-0.7,0.3-1.1,0.4
        c-0.7,0.1-1.3,0.1-2,0c-0.5-0.1-0.9-0.3-1.3-0.5c-0.1-0.1-0.2-0.1-0.4-0.1c-0.4-0.1-0.8-0.2-1.2-0.5c-0.4-0.3-0.7-0.8-0.7-1.3
        L14.5,15.8C14.5,15.8,14.5,15.8,14.5,15.8z M16.1,15.1L16.1,15.1c0-0.3,0.1-0.4,0.3-0.4c0.2,0,0.3,0.1,0.3,0.3v3.3
        c0,0.3,0.1,0.5,0.4,0.7c0.2,0.1,0.4,0.3,0.6,0.3c0.5,0.1,1.1,0.2,1.6,0.2c0.2,0,0.4,0,0.6,0c0.4,0,0.7-0.2,1-0.4
        c0.2-0.1,0.3-0.3,0.4-0.5c0-0.2,0.1-0.4,0.1-0.6v-5.2c0-0.1,0-0.2,0-0.3c0-0.1,0.1-0.3,0.1-0.4c0.2-0.6,0.2-1.3,0.1-2
        c0-0.4-0.1-0.8-0.3-1.2c-0.2-0.7-0.5-1.3-1-1.8c-0.5-0.6-1.2-1-1.9-1.3c-0.8-0.3-1.7-0.5-2.6-0.5l-3.8,0.1l0,0v0.1
        c0.1,0.4,0.3,0.8,0.3,1.2c0.1,0.5,0.1,1,0.1,1.4c0,0.5,0,1.1-0.1,1.6c-0.1,0.5-0.4,0.9-0.7,1.2c-0.3,0.3-0.7,0.5-1.1,0.5
        c-0.2,0-0.3,0.1-0.5,0.1c-0.1,0-0.2,0.2-0.2,0.3v0.2c0,0.1-0.1,0.3-0.3,0.3c-0.2,0-0.3-0.1-0.3-0.2c0-0.1,0-0.2,0-0.3
        c0-0.4,0.3-0.7,0.6-0.8c0.2-0.1,0.4-0.1,0.6-0.2c0.5-0.1,0.9-0.3,1.2-0.7C11.8,9.7,12,9.3,12,8.8C12,8,12,7.2,11.8,6.4
        c-0.1-0.5-0.3-0.9-0.6-1.3c-0.4-0.6-1.1-0.8-1.8-0.6C9.1,4.7,8.8,4.8,8.5,5c-0.4,0.2-0.7,0.4-1,0.6c-0.1,0.1-0.3,0.1-0.4,0
        c0,0-0.1,0-0.1,0c-0.4,0-0.8,0.1-1.2,0.1C5.2,5.9,4.6,6,4.1,6.2c-0.9,0.3-1.5,1.1-1.7,2c-0.1,0.5-0.1,1-0.1,1.6c0,2.9,0,5.8,0,8.6
        l0,0c0,0.3,0.2,0.6,0.5,0.6c0.2,0,0.4,0,0.6,0c0.2,0,0.4,0,0.6-0.1c0.1-0.1,0.2-0.2,0.2-0.4c0-0.4,0.1-0.8,0.1-1.1
        c0-0.3,0-0.7,0.1-1c0.1-0.3,0.1-0.7,0.1-1c0-0.3,0.1-0.8,0.2-1.2c0.1-0.4,0.2-0.7,0.4-1c0.3-0.4,0.8-0.6,1.3-0.6
        c0.2,0,0.4-0.1,0.6-0.2c0.2-0.1,0.3-0.3,0.4-0.5c0.2-0.4,0.3-0.9,0.4-1.3c0-0.1,0-0.1-0.1-0.1c0,0,0,0,0,0l0,0
        c-0.2-0.1-0.4-0.2-0.5-0.4c-0.1-0.1-0.1-0.2,0-0.3c0.1-0.1,0.3-0.1,0.4,0C7.7,10,8,10,8.2,9.9c0.1,0,0.1-0.1,0.1-0.2l0,0
        c0.1-0.1,0.2-0.1,0.3,0C8.7,9.8,8.7,9.9,8.7,10c-0.1,0.2-0.3,0.4-0.5,0.5c0,0,0,0,0,0.1c0,0.2,0,0.5-0.1,0.7
        c-0.1,0.5-0.3,0.9-0.6,1.3l-0.2,0.2L8.2,13c0,0,0,0,0.1,0c0.1-0.1,0.3-0.1,0.4,0l0,0c0.1,0.1,0.1,0.2,0.1,0.3v5
        c0,0.5,0.2,0.9,0.6,1.1c0.2,0.1,0.4,0.2,0.6,0.2c0.7,0.1,1.3,0.1,2,0c0.4,0,0.7-0.2,1-0.4c0.1-0.1,0.2-0.3,0.3-0.4
        c0-0.2,0.1-0.3,0.1-0.5v-3.2c0-0.1,0-0.1,0-0.2c0.1-0.1,0.2-0.2,0.3-0.2c0.1,0,0.2,0.1,0.2,0.2c0,0.1,0,0.1,0,0.2c0,0,0,0,0,0.1
        h1.4L16.1,15.1L16.1,15.1L16.1,15.1z M7.1,13.4L7.1,13.4c0,1.5,0,2.8,0,4.2c0,0.3,0.1,0.5,0.3,0.7c0.2,0.2,0.4,0.3,0.7,0.4h0.1
        v-4.8c0-0.1,0-0.1-0.1-0.1c0,0,0,0,0,0l0,0l-0.6-0.2L7.1,13.4z M16.2,18.8L16.2,18.8c0-0.2,0-0.3,0-0.5v-2.6h-0.1l-0.9,0.1
        c-0.1,0-0.1,0-0.1,0.1v1.8c0,0.1,0,0.3,0.1,0.4C15.4,18.4,15.8,18.7,16.2,18.8L16.2,18.8L16.2,18.8z M6.6,5h0.8l0.8-0.6h0
        C7.6,4.3,7,4.5,6.6,5z"/>
    <path class="st0" d="M5.7,8.2C5.5,8.4,5.4,8.6,5.2,8.7h0.3C5.8,8.7,6.1,9,6,9.3c0,0.1,0,0.1,0,0.2c-0.2,0.5-0.7,0.7-1.2,0.6
        c-0.1,0-0.2,0-0.2-0.1C4.4,9.8,4.3,9.6,4.3,9.4C4.2,9.1,4.3,8.8,4.6,8.6c0.3-0.2,0.6-0.3,0.9-0.4L5.7,8.2L5.7,8.2z M5.1,9.6
        c0.1,0.1,0.1,0.1,0.2,0.2c0.1,0.1,0.2,0.1,0.3,0c0.1-0.1,0.2-0.2,0.2-0.3C5.8,9.2,5.6,9,5.4,9C5.3,9,5.2,9.1,5.1,9.2c0,0,0,0,0,0
        l0,0l0.2,0.2L5.1,9.6z M5.2,10H5.1c-0.3,0-0.5-0.2-0.4-0.5c0-0.3,0.3-0.6,0.6-0.6h0.3C5.3,8.8,5.1,8.8,4.9,9
        C4.7,9.1,4.6,9.3,4.6,9.5c0,0.3,0.2,0.5,0.5,0.5c0,0,0,0,0,0L5.2,10L5.2,10L5.2,10z"/>
    <path class="st0" d="M3.5,7.8c0-0.1,0.1-0.1,0.1-0.2c0.2-0.3,0.6-0.4,0.9-0.5c0.4-0.1,0.8-0.1,1.2,0.1h0.1c0,0,0,0.1,0,0.1l0,0
        c-0.1,0-0.1,0-0.2,0c-0.2,0-0.3,0-0.5,0C4.7,7.3,4.3,7.6,4,7.9L3.9,8C3.8,8.1,3.6,8,3.6,7.9C3.5,7.9,3.5,7.8,3.5,7.8z"/>
</g>
</svg>