<?xml version="1.0" encoding="utf-8"?>
<!-- Generator: Adobe Illustrator 15.0.0, SVG Export Plug-In . SVG Version: 6.00 Build 0)  -->
<!DOCTYPE svg PUBLIC "-//W3C//DTD SVG 1.1//EN" "http://www.w3.org/Graphics/SVG/1.1/DTD/svg11.dtd">
<svg version="1.1" id="Camada_1" xmlns="http://www.w3.org/2000/svg" xmlns:xlink="http://www.w3.org/1999/xlink" x="0px" y="0px"
	 width="24px" height="24px" viewBox="0 0 24 24" enable-background="new 0 0 24 24" xml:space="preserve">
<g id="Layer_7">
	<g>
		<path id="path1948_1_" fill="#5D6061" d="M11.859,0C10.88,0.005,9.945,0.089,9.123,0.234C6.7,0.662,6.26,1.558,6.26,3.21v2.182
			h5.726V6.12H6.26H4.111c-1.664,0-3.121,1-3.576,2.903c-0.526,2.181-0.549,3.542,0,5.819c0.407,1.695,1.378,2.902,3.043,2.902
			h1.968v-2.616c0-1.89,1.635-3.557,3.577-3.557h5.719c1.592,0,2.862-1.31,2.862-2.909V3.21c0-1.551-1.31-2.717-2.862-2.977
			C13.857,0.07,12.837-0.004,11.859,0z M8.762,1.756c0.591,0,1.075,0.491,1.075,1.094c0,0.601-0.483,1.087-1.075,1.087
			c-0.594,0-1.074-0.486-1.074-1.087C7.688,2.247,8.168,1.756,8.762,1.756z"/>
		<path id="path1950_1_" fill="#5D6061" d="M18.418,6.12v2.543c0,1.971-1.671,3.629-3.576,3.629H9.123
			c-1.566,0-2.863,1.341-2.863,2.91v5.452c0,1.551,1.349,2.463,2.863,2.908c1.812,0.533,3.55,0.631,5.719,0
			c1.441-0.416,2.862-1.256,2.862-2.908v-2.184h-5.718v-0.728h5.718h2.862c1.664,0,2.285-1.16,2.863-2.902
			c0.598-1.794,0.571-3.519,0-5.819c-0.412-1.657-1.197-2.903-2.863-2.903L18.418,6.12L18.418,6.12z M15.201,19.926
			c0.595,0,1.074,0.486,1.074,1.088c0,0.604-0.479,1.096-1.074,1.096c-0.59,0-1.073-0.491-1.073-1.096
			C14.128,20.412,14.611,19.926,15.201,19.926z"/>
	</g>
</g>
</svg>
