<?xml version="1.0" encoding="utf-8"?>
<!-- Generator: Adobe Illustrator 14.0.0, SVG Export Plug-In . SVG Version: 6.00 Build 43363)  -->
<!DOCTYPE svg PUBLIC "-//W3C//DTD SVG 1.1//EN" "http://www.w3.org/Graphics/SVG/1.1/DTD/svg11.dtd">
<svg version="1.1" id="Ruby" xmlns="http://www.w3.org/2000/svg" xmlns:xlink="http://www.w3.org/1999/xlink" x="0px" y="0px"
   width="24px" height="24px" viewBox="0 0 24 24" enable-background="new 0 0 24 24" xml:space="preserve">
<path fill="#5D6061" d="M23.512,7.685l-3.188-3.967C20.324,3.718,17.938,0,12,0C6.062,0,3.676,3.718,3.676,3.718L0.488,7.685
  L0,9.503l0.492,1.834L12,24l11.508-12.663L24,9.503L23.512,7.685z M12,1.25c4.479,0,7.229,2.087,7.229,3.373
  c0,1.287-2.75,3.083-7.229,3.083c-4.479,0-7.229-1.796-7.229-3.083C4.771,3.337,7.521,1.25,12,1.25z M1.576,10.8L1.263,9.633
  L1.602,8.37L3.22,6.355l-1.23,4.901L1.576,10.8z M4.086,6.354c0.647,0.942,1.816,1.664,3.226,2.151l-4.464,2.776L4.086,6.354z
   M2.978,12.35L7.6,9.475l-1.57,6.25L2.978,12.35z M8.403,9.753l2.878,6.263H6.83L8.403,9.753z M11.453,21.72L7,16.797h4.453V21.72z
   M8.977,8.952C9.954,9.146,10.984,9.246,12,9.246c1.016,0,2.046-0.1,3.023-0.294L12,15.53L8.977,8.952z M12.547,21.72v-4.923H17
  L12.547,21.72z M12.719,16.016l2.878-6.263l1.573,6.263H12.719z M17.971,15.725l-1.57-6.25l4.621,2.875L17.971,15.725z
   M16.688,8.505c1.41-0.487,2.58-1.209,3.227-2.151l1.238,4.927L16.688,8.505z M22.424,10.8l-0.414,0.456l-1.23-4.901l1.619,2.015
  l0.338,1.263L22.424,10.8z"/>
</svg>
