<?xml version="1.0" encoding="utf-8"?>
<!-- Generator: Adobe Illustrator 14.0.0, SVG Export Plug-In . SVG Version: 6.00 Build 43363)  -->
<!DOCTYPE svg PUBLIC "-//W3C//DTD SVG 1.1//EN" "http://www.w3.org/Graphics/SVG/1.1/DTD/svg11.dtd">
<svg version="1.1" id="issues" xmlns="http://www.w3.org/2000/svg" xmlns:xlink="http://www.w3.org/1999/xlink" x="0px" y="0px"
	 width="16px" height="16px" viewBox="0 0 16 16" enable-background="new 0 0 16 16" xml:space="preserve">
<g>
	<path d="M8,0c2.261,0.06,4.146,0.843,5.651,2.348C15.157,3.854,15.939,5.738,16,8c-0.061,2.263-0.843,4.146-2.349,5.651
		C12.146,15.157,10.261,15.939,8,16c-2.262-0.061-4.146-0.843-5.652-2.349C0.842,12.146,0.059,10.263,0,8
		c0.059-2.262,0.842-4.146,2.348-5.652C3.854,0.843,5.738,0.06,8,0z M8,1.143C6.059,1.191,4.443,1.86,3.152,3.152
		C1.86,4.444,1.19,6.06,1.143,8c0.047,1.94,0.717,3.557,2.009,4.849C4.443,14.14,6.059,14.81,8,14.857
		c1.939-0.048,3.556-0.718,4.849-2.009C14.14,11.557,14.81,9.94,14.857,8c-0.048-1.94-0.718-3.556-2.009-4.848
		C11.556,1.86,9.939,1.191,8,1.143z M6.857,3.429h2.286v5.714H6.857V3.429z M6.857,12.571h2.286v-2.285H6.857V12.571z"/>
</g>
</svg>
