<?xml version="1.0" encoding="utf-8"?>
<!-- Generator: Adobe Illustrator 15.0.0, SVG Export Plug-In . SVG Version: 6.00 Build 0)  -->
<!DOCTYPE svg PUBLIC "-//W3C//DTD SVG 1.1//EN" "http://www.w3.org/Graphics/SVG/1.1/DTD/svg11.dtd">
<svg version="1.1" id="Camada_1" xmlns="http://www.w3.org/2000/svg" xmlns:xlink="http://www.w3.org/1999/xlink" x="0px" y="0px"
   width="24px" height="24px" viewBox="0 0 24 24" enable-background="new 0 0 24 24" xml:space="preserve">
<g>
  <polygon fill="#5D6061" points="12.518,17.611 17.118,14.957 17.121,9.467 12.425,12.176  "/>
  <polygon fill="#5D6061" points="12.105,11.517 16.755,8.835 12.004,6.091 7.261,8.828   "/>
  <polygon fill="#5D6061" points="6.986,14.945 11.785,17.609 11.695,12.245 6.895,9.472  "/>
  <polygon fill="#5D6061" points="6.895,9.46 6.895,9.472 11.695,12.245 11.693,12.124  "/>
  <path fill="#CCCCCC" d="M22.393,6.001L22.393,6.001L12.007,0h-0.001l0,0L1.611,5.996V6L1.604,6.005l0.008,0.439L1.607,17.996
    L11.998,24l0.303-0.175l0.021,0.011l0.139-0.104l9.932-5.729l0.004-12L22.393,6.001z M21.662,17.582l-9.014,5.199l-0.067-4.014
    H11.85l0.067,4.01l-9.388-5.211L2.349,6.847l3.535,2.042l0.497-0.65L2.715,6.203l9.291-5.359l9.293,5.369l-3.592,2.072l0.41,0.607
    l3.549-2.047L21.662,17.582z"/>
</g>
</svg>
