<svg
   xmlns="http://www.w3.org/2000/svg"
   version="1.2"
   width="270"
   height="54"
   >
  <g
     transform="translate(0,-6)"
     id="layer1">
    <rect
       width="156"
       height="50"
       ry="4.5"
       x="2"
       y="8"
       id="rect3101"
       style="fill:#3367d6;fill-opacity:1" />
  </g>
  <g
     id="layer2">
    <text
       x="52.473"
       y="31.976562"
       id="text4303"
       xml:space="preserve"
       style="font-size:13px;font-style:normal;font-weight:normal;line-height:100%;letter-spacing:1px;word-spacing:2px;fill:#ffffff;fill-opacity:1;stroke:none;font-family:Roboto, Sans;user-select: none">GUIDE ME</text>
    <g
       transform="matrix(1.1349981,0,0,1.1349981,16.464659,15.380023)"
       id="g3949"
       style="fill:#ffffff">
      <path
         d="M 21,2 H 3 C 1.9,2 1,2.9 1,4 v 11.9 c 0,1.1 0.9,2 2,2 h 7 V 20 H 8 v 2 h 8 v -2 h -2 v -2.2 h 7 c 1.1,0 2,-0.9 2,-2 V 4 C 23,2.9 22.1,2 21,2 z m -4,13 h -4 v -2 h 4 v 2 z m 0.1,-4.8 -9.9,4.1 v -2.1 l 7.2,-3.1 -7.2,-3 v -2 l 9.9,4.1 v 2 z"
         id="path3937"
         style="fill:#ffffff" />
      <path
         d="m 10,17.8 h 4 V 20 h -4 z"
         id="path3939"
         style="fill:#ffffff" />
      <path
         d="m 8,20 h 8 v 2 H 8 z"
         id="path3941"
         style="fill:#ffffff" />
    </g>
  </g>
</svg>
